<?xml version="1.0" encoding="UTF-8"?>
<svg id="Camada_2" data-name="Camada 2" xmlns="http://www.w3.org/2000/svg" viewBox="0 0 786.1 415.58">
  <defs>
    <style>
      .cls-1 {
        fill: #fff;
      }
    </style>
  </defs>
  <g id="Camada_1-2" data-name="Camada 1">
    <path class="cls-1" d="m573.32,258.2c0,19.95.72,39.94-.14,59.85-2.05,47.01-38.75,87.6-86.04,96.17-42.42,7.69-88.08-17.98-106.74-60.07-2.84-6.39-5.88-12.96-4.86-20.11,1.86-12.97,8.71-22.31,21.89-25.53,13.07-3.19,22.32,3.09,28.78,13.72,4.65,7.64,7.9,16.09,14.72,22.35,13.74,12.61,29.4,16.6,46.98,9.99,17.43-6.56,26.75-20.12,30.11-37.99,1.96-10.44-1.06-12.93-11.99-9.37-58.27,18.96-114.09-11.16-131.22-70.05-16.72-57.48,16.06-118.42,72.13-134.07,60.42-16.86,123.45,30.45,126.28,95.25.87,19.92.13,39.9.11,59.86Zm-147.03-51.92c.04,28.16,20.71,49.93,46.99,49.48,24.71-.43,44.99-22.21,45.14-48.5.16-27.62-19.67-48.97-45.63-49.14-26.13-.17-46.54,20.97-46.5,48.16Z"/>
    <path class="cls-1" d="m360.75,257.7c0,19.95.68,39.93-.14,59.85-1.92,46.63-37.63,87.09-84.08,96.23-42.79,8.42-88.21-15.85-107.92-57.75-1.69-3.6-3.19-7.34-4.27-11.16-4.16-14.66,2.36-28.9,15.71-34.75,13.15-5.77,25.91-1.15,34.04,12.94,4.48,7.77,8.03,16.03,14.95,22.18,13.97,12.41,29.8,16,47.16,9.05,17.19-6.88,26.55-20.35,29.31-38.52,1.51-9.91-1.54-12.48-11.46-8.67-55.36,21.28-105.83-11.89-125.38-52.68-23.19-48.39-7.87-107.84,35.64-137.11,31.07-20.9,64.61-24.05,97.99-7.5,36.35,18.02,55.79,48.99,58.28,89.55,1.19,19.38.2,38.89.17,58.34Zm-147.08-50.59c.12,26.52,20.16,48.27,44.78,48.59,26.5.34,47.47-21.45,47.35-49.21-.12-27.46-20-48.14-46.45-48.33-25.66-.18-45.8,21.4-45.68,48.96Z"/>
    <path class="cls-1" d="m64.21,157.19c0,40.93.29,81.86-.14,122.79-.17,16.35-9.92,28.18-24.37,32.11-13.08,3.56-27.15-2.36-34.75-14.56C1.11,291.37.03,284.58.03,277.47.05,197.1-.1,116.74.14,36.38.2,14.66,13.41.17,31.86,0c18.34-.17,32.07,14.44,32.29,35.9.41,40.43.12,80.86.12,121.29h-.06Z"/>
    <path class="cls-1" d="m81.41,218.46c0-17.94-.29-35.88.07-53.81.45-22.51,13.24-37.78,31.53-38.43,19.02-.68,33.6,14.26,34.09,37.54.78,36.85.77,73.75,0,110.6-.48,22.87-14.08,36.84-33.08,36.67-19.33-.17-32.17-15.2-32.57-38.75-.3-17.93-.06-35.87-.05-53.81Z"/>
    <path class="cls-1" d="m150.87,64.09c.26,20.61-16.07,38.48-35.67,39.03-19.54.55-36.64-16.67-37.19-37.44-.56-21.35,16.23-39.81,36.25-39.84,19.32-.03,36.34,17.76,36.61,38.25Z"/>
    <path class="cls-1" d="m786.05,206.66c-.03-67.1.03-70.66.03-70.66.07-3.96.34-17.22-8.04-26.14-.77-.81-2.59-2.65-5.38-4.35-9.97-6.06-20.99-3.44-23.19-2.86-2.29.6-7.52,2.05-12.24,6.53-1.44,1.37-2.47,2.67-3.15,3.62-3.17-1.53-6.35-3.05-9.52-4.58-53.9-24.73-117.26,6.28-135.75,63.12-3.82,11.73-5.61,23.63-5.6,35.31,0,11.67,1.79,23.58,5.6,35.31,18.49,56.84,81.85,87.85,135.75,63.12,3.17-1.53,6.35-3.05,9.52-4.58.68.95,1.71,2.26,3.15,3.62,4.72,4.49,9.95,5.93,12.24,6.53,2.2.58,13.22,3.2,23.19-2.86,2.79-1.7,4.61-3.53,5.38-4.35,8.37-8.92,8.11-22.18,8.04-26.14,0,0-.06-3.56-.03-70.66Zm-102.08,49.04c-24.86-.12-44.77-21.88-45.05-49.04.28-27.16,20.19-48.92,45.05-49.04,25.59-.13,46.83,21.62,47.12,48.22,0,.27,0,.54-.01.82,0,.27.01.54.01.82-.28,26.6-21.53,48.35-47.12,48.22Z"/>
  </g>
</svg>