<?xml version="1.0" encoding="utf-8"?>
<!-- Generator: Adobe Illustrator 27.5.0, SVG Export Plug-In . SVG Version: 6.00 Build 0)  -->
<svg version="1.1" id="Camada_2_00000121241676177781117200000001784930804652687282_"
	 xmlns="http://www.w3.org/2000/svg" xmlns:xlink="http://www.w3.org/1999/xlink" x="0px" y="0px" viewBox="0 0 432.8 401.3"
	 style="enable-background:new 0 0 432.8 401.3;" xml:space="preserve">
<style type="text/css">
	.st0{fill:#C2C2C2;}
</style>
<g id="Camada_1-2">
	<g>
		<path class="st0" d="M248.6,376.3h-67V125.9h114v15.3c0,6.9,5.6,12.5,12.5,12.5s12.5-5.6,12.5-12.5v-15.3h3.3
			c6.9,0,12.5-5.6,12.5-12.5s-5.6-12.5-12.5-12.5H181.7V12.5c0-6.9-5.6-12.5-12.5-12.5s-12.5,5.6-12.5,12.5v88.4H12.5
			c-6.9,0-12.5,5.6-12.5,12.5s5.6,12.5,12.5,12.5h3.2v15.3c0,6.9,5.6,12.5,12.5,12.5s12.5-5.6,12.5-12.5v-15.3h116v250.5H89.9
			c-6.9,0-12.5,5.6-12.5,12.5s5.6,12.5,12.5,12.5h158.7c6.9,0,12.5-5.6,12.5-12.5S255.5,376.3,248.6,376.3L248.6,376.3z"/>
		<path class="st0" d="M361.4,250.9L361.4,250.9c-0.5,0-1,0-1.6,0c-55.9,0-110.6-8.8-163.2-26.2v15.8
			c52.6,16.9,107.4,25.4,163.2,25.4c0.5,0,1.1,0,1.6,0c4.1,0,7.5-3.4,7.5-7.5C368.9,254.3,365.5,250.9,361.4,250.9L361.4,250.9z"/>
		<path class="st0" d="M141.6,203.1c-30.9-14.3-60.3-31.6-87.9-51.7c-1.9,4.8-5.1,8.9-9.2,11.9c30.4,22.2,62.9,41,97.1,56.3V203.1
			L141.6,203.1z"/>
		<path class="st0" d="M425.3,175.6c-0.1,0-0.1,0-0.2,0c-19.7,0.4-39.2-2.5-57.8-8.6c-11.8-3.9-23.1-9.1-33.7-15.4
			c-2,4.8-5.2,8.9-9.4,11.9c12,7.3,24.9,13.3,38.4,17.7c19,6.3,38.7,9.4,58.7,9.4c1.4,0,2.8,0,4.2-0.1c4.1-0.1,7.4-3.5,7.3-7.7
			C432.7,178.9,429.4,175.6,425.3,175.6L425.3,175.6z"/>
	</g>
</g>
</svg>
