<?xml version="1.0" encoding="utf-8"?>
<!-- Generator: Adobe Illustrator 27.5.0, SVG Export Plug-In . SVG Version: 6.00 Build 0)  -->
<svg version="1.1" id="Camada_2_00000162323026749169829200000008936777452361560201_"
	 xmlns="http://www.w3.org/2000/svg" xmlns:xlink="http://www.w3.org/1999/xlink" x="0px" y="0px" viewBox="0 0 336.9 441.3"
	 style="enable-background:new 0 0 336.9 441.3;" xml:space="preserve">
<style type="text/css">
	.st0{fill:#C2C2C2;}
</style>
<g id="Camada_1-2">
	<path class="st0" d="M324.2,416.3H297l-68.4-250.5h67.5v15.3c0,6.9,5.6,12.5,12.5,12.5s12.5-5.6,12.5-12.5v-15.3h3.3
		c5.8,0,10.8-4,12.2-9.6s-1.3-11.4-6.5-14.1L204.8,78.6L185.8,9.2c-1.5-5.4-6.4-9.2-12.1-9.2h-10.6c-5.7,0-10.7,3.8-12.1,9.3
		l-18.1,69.3L7.3,142.1c-5.2,2.6-7.9,8.4-6.5,14.1c1.3,5.6,6.4,9.6,12.2,9.6h3.2v15.3c0,6.9,5.6,12.5,12.5,12.5s12.5-5.6,12.5-12.5
		v-15.3h69L44.6,416.3H12.5c-6.9,0-12.5,5.6-12.5,12.5s5.6,12.5,12.5,12.5h311.7c6.9,0,12.5-5.6,12.5-12.5S331.1,416.3,324.2,416.3
		L324.2,416.3z M153.2,99.7h31.4l11.2,41.1h-53.3L153.2,99.7L153.2,99.7z M210.3,306c-12.6,8.7-26,17.9-39.9,27.5
		c-14.1-9.6-27.7-18.9-40.2-27.5H210.3z M117.2,281l52.4-60l53.1,60H117.2z M243.1,313.8l23.3,85.4c-23.2-15.9-48.8-33.4-73.9-50.6
		C210.6,336.1,227.9,324.2,243.1,313.8L243.1,313.8z M186.2,202l20.1-23l18,66L186.2,202L186.2,202z M169.5,183.2l-15.4-17.4h30.6
		L169.5,183.2z M152.9,202.1l-37.8,43.2l17.3-66.3L152.9,202.1L152.9,202.1z M97.2,313.8c15.2,10.3,32.7,22.3,51.1,34.9
		c-25.1,17.3-50.5,34.9-73.5,50.7L97.2,313.8L97.2,313.8z M170.5,363.8c25.7,17.6,52.4,35.9,76.7,52.5H94.3
		C118.4,399.7,144.8,381.5,170.5,363.8L170.5,363.8z M272.1,140.8h-50.4l-8.1-29.7L272.1,140.8z M168.6,41l9.2,33.7h-18
		C159.8,74.7,168.6,41,168.6,41z M65.3,140.8l59.1-29.9l-7.8,29.9H65.3L65.3,140.8z"/>
</g>
</svg>
